<svg width="138" height="71" viewBox="0 0 138 71" fill="none" xmlns="http://www.w3.org/2000/svg">
<path d="M57.3112 29.6885H63.1312V31.6885H59.5112V35.5885H62.3512V37.5885H59.5112V43.6885H57.3112V29.6885ZM64.1862 29.6885H67.4462C68.5796 29.6885 69.4062 29.9552 69.9262 30.4885C70.4462 31.0085 70.7062 31.8152 70.7062 32.9085V33.7685C70.7062 35.2219 70.2262 36.1419 69.2662 36.5285V36.5685C69.7996 36.7285 70.1729 37.0552 70.3862 37.5485C70.6129 38.0419 70.7262 38.7019 70.7262 39.5285V41.9885C70.7262 42.3885 70.7396 42.7152 70.7662 42.9685C70.7929 43.2085 70.8596 43.4485 70.9662 43.6885H68.7262C68.6462 43.4619 68.5929 43.2485 68.5662 43.0485C68.5396 42.8485 68.5262 42.4885 68.5262 41.9685V39.4085C68.5262 38.7685 68.4196 38.3219 68.2062 38.0685C68.0062 37.8152 67.6529 37.6885 67.1462 37.6885H66.3862V43.6885H64.1862V29.6885ZM67.1862 35.6885C67.6262 35.6885 67.9529 35.5752 68.1662 35.3485C68.3929 35.1219 68.5062 34.7419 68.5062 34.2085V33.1285C68.5062 32.6219 68.4129 32.2552 68.2262 32.0285C68.0529 31.8019 67.7729 31.6885 67.3862 31.6885H66.3862V35.6885H67.1862ZM75.4326 43.8885C74.3526 43.8885 73.526 43.5819 72.9526 42.9685C72.3793 42.3552 72.0926 41.4885 72.0926 40.3685V33.0085C72.0926 31.8885 72.3793 31.0219 72.9526 30.4085C73.526 29.7952 74.3526 29.4885 75.4326 29.4885C76.5126 29.4885 77.3393 29.7952 77.9126 30.4085C78.486 31.0219 78.7726 31.8885 78.7726 33.0085V40.3685C78.7726 41.4885 78.486 42.3552 77.9126 42.9685C77.3393 43.5819 76.5126 43.8885 75.4326 43.8885ZM75.4326 41.8885C76.1926 41.8885 76.5726 41.4285 76.5726 40.5085V32.8685C76.5726 31.9485 76.1926 31.4885 75.4326 31.4885C74.6726 31.4885 74.2926 31.9485 74.2926 32.8685V40.5085C74.2926 41.4285 74.6726 41.8885 75.4326 41.8885ZM80.2604 29.6885H83.0204L85.1604 38.0685H85.2004V29.6885H87.1604V43.6885H84.9004L82.2604 33.4685H82.2204V43.6885H80.2604V29.6885ZM90.5156 31.6885H88.2156V29.6885H95.0156V31.6885H92.7156V43.6885H90.5156V31.6885ZM98.9408 43.8885C97.8741 43.8885 97.0674 43.5885 96.5208 42.9885C95.9741 42.3752 95.7008 41.5019 95.7008 40.3685V39.5685H97.7808V40.5285C97.7808 41.4352 98.1608 41.8885 98.9208 41.8885C99.2941 41.8885 99.5741 41.7819 99.7608 41.5685C99.9608 41.3419 100.061 40.9819 100.061 40.4885C100.061 39.9019 99.9274 39.3885 99.6608 38.9485C99.3941 38.4952 98.9008 37.9552 98.1808 37.3285C97.2741 36.5285 96.6408 35.8085 96.2808 35.1685C95.9208 34.5152 95.7408 33.7819 95.7408 32.9685C95.7408 31.8619 96.0208 31.0085 96.5808 30.4085C97.1408 29.7952 97.9541 29.4885 99.0208 29.4885C100.074 29.4885 100.867 29.7952 101.401 30.4085C101.947 31.0085 102.221 31.8752 102.221 33.0085V33.5885H100.141V32.8685C100.141 32.3885 100.047 32.0419 99.8608 31.8285C99.6741 31.6019 99.4008 31.4885 99.0408 31.4885C98.3074 31.4885 97.9408 31.9352 97.9408 32.8285C97.9408 33.3352 98.0741 33.8085 98.3408 34.2485C98.6208 34.6885 99.1208 35.2219 99.8408 35.8485C100.761 36.6485 101.394 37.3752 101.741 38.0285C102.087 38.6819 102.261 39.4485 102.261 40.3285C102.261 41.4752 101.974 42.3552 101.401 42.9685C100.841 43.5819 100.021 43.8885 98.9408 43.8885ZM105.242 31.6885H102.942V29.6885H109.742V31.6885H107.442V43.6885H105.242V31.6885ZM111.589 29.6885H114.569L116.849 43.6885H114.649L114.249 40.9085V40.9485H111.749L111.349 43.6885H109.309L111.589 29.6885ZM113.989 39.0485L113.009 32.1285H112.969L112.009 39.0485H113.989ZM120.978 43.8885C119.924 43.8885 119.118 43.5885 118.558 42.9885C118.011 42.3885 117.738 41.5419 117.738 40.4485V32.9285C117.738 31.8352 118.011 30.9885 118.558 30.3885C119.118 29.7885 119.924 29.4885 120.978 29.4885C122.031 29.4885 122.831 29.7885 123.378 30.3885C123.938 30.9885 124.218 31.8352 124.218 32.9285V34.4085H122.138V32.7885C122.138 31.9219 121.771 31.4885 121.038 31.4885C120.304 31.4885 119.938 31.9219 119.938 32.7885V40.6085C119.938 41.4619 120.304 41.8885 121.038 41.8885C121.771 41.8885 122.138 41.4619 122.138 40.6085V38.4685H124.218V40.4485C124.218 41.5419 123.938 42.3885 123.378 42.9885C122.831 43.5885 122.031 43.8885 120.978 43.8885ZM125.534 29.6885H127.734V35.5885L130.534 29.6885H132.734L130.114 34.8285L132.774 43.6885H130.474L128.614 37.4485L127.734 39.2285V43.6885H125.534V29.6885Z" fill="#08073A"/>
<mask id="mask0_8_4" style="mask-type:luminance" maskUnits="userSpaceOnUse" x="0" y="15" width="50" height="56">
<path d="M49.4912 15.9619H0V70.6885H49.4912V15.9619Z" fill="white"/>
</mask>
<g mask="url(#mask0_8_4)">
<path d="M42.0905 26.9399C40.1283 26.9418 38.247 27.5918 36.8599 28.7473C35.4724 29.9029 34.6919 31.4696 34.6901 33.1037V48.4563C34.7108 49.555 34.4692 50.6459 33.9787 51.6659C33.4882 52.6859 32.7592 53.6143 31.8337 54.3974C30.9081 55.1805 29.8048 55.8024 28.5879 56.2268C27.371 56.6513 26.0649 56.8698 24.7456 56.8698C23.4263 56.8698 22.1202 56.6513 20.9033 56.2268C19.6864 55.8024 18.5831 55.1805 17.6576 54.3974C16.7321 53.6143 16.003 52.6859 15.5126 51.6659C15.0221 50.6459 14.7803 49.555 14.8011 48.4563V33.1037C14.8011 31.4691 14.0214 29.9015 12.6336 28.7457C11.2457 27.5899 9.36332 26.9406 7.40057 26.9406C5.43783 26.9406 3.55545 27.5899 2.16757 28.7457C0.779694 29.9015 0 31.4691 0 33.1037V50.0819C-9.68468e-08 52.7881 0.640061 55.468 1.88364 57.9682C3.12723 60.4685 4.94999 62.7402 7.24782 64.654C9.54565 66.5675 12.2736 68.0855 15.2759 69.1212C18.2781 70.1567 21.496 70.6898 24.7456 70.6898C27.9953 70.6898 31.2131 70.1567 34.2154 69.1212C37.2177 68.0855 39.9455 66.5675 42.2433 64.654C44.5413 62.7402 46.3641 60.4685 47.6074 57.9682C48.8511 55.468 49.4912 52.7881 49.4912 50.0819V33.1037C49.4891 31.4696 48.7089 29.9029 47.3215 28.7473C45.934 27.5918 44.0527 26.9418 42.0905 26.9399ZM46.2534 50.0806C46.2534 54.8311 43.9873 59.3869 39.9539 62.7459C35.9204 66.1049 30.4498 67.9921 24.7456 67.9921C19.0414 67.9921 13.5708 66.1049 9.53729 62.7459C5.50379 59.3869 3.23778 54.8311 3.23778 50.0806V33.1037C3.24726 32.1894 3.68998 31.3153 4.46965 30.6716C5.24929 30.0279 6.3027 29.6667 7.40057 29.6667C8.49844 29.6667 9.55185 30.0279 10.3315 30.6716C11.1111 31.3153 11.5539 32.1894 11.5634 33.1037V48.4563C11.5634 51.3679 12.9522 54.1603 15.4243 56.2191C17.8965 58.2779 21.2495 59.4344 24.7456 59.4344C28.2418 59.4344 31.5948 58.2779 34.067 56.2191C36.5389 54.1603 37.9279 51.3679 37.9279 48.4563V33.1037C37.9279 32.1843 38.3663 31.3025 39.1471 30.6523C39.9279 30.0022 40.9866 29.637 42.0905 29.637C43.1948 29.637 44.2535 30.0022 45.0342 30.6523C45.8147 31.3025 46.2534 32.1843 46.2534 33.1037V50.0806Z" fill="#BA3E16"/>
</g>
<mask id="mask1_8_4" style="mask-type:luminance" maskUnits="userSpaceOnUse" x="0" y="0" width="50" height="58">
<path d="M1.52588e-05 57.0068H49.4912V-3.8147e-05H1.52588e-05V57.0068Z" fill="white"/>
</mask>
<g mask="url(#mask1_8_4)">
<path d="M7.40074 45.5714C9.36292 45.5695 11.2442 44.8924 12.6314 43.6887C14.0188 42.485 14.7993 40.853 14.8012 39.1508V23.1585C14.7804 22.014 15.0221 20.8776 15.5125 19.8152C16.003 18.7527 16.732 17.7856 17.6575 16.9699C18.5832 16.1541 19.6865 15.5064 20.9033 15.0642C22.1202 14.6221 23.4263 14.3944 24.7456 14.3944C26.0649 14.3944 27.371 14.6221 28.5879 15.0642C29.8048 15.5064 30.9081 16.1541 31.8336 16.9699C32.7591 17.7856 33.4883 18.7527 33.9787 19.8152C34.4691 20.8776 34.7109 22.014 34.6901 23.1585V39.1508C34.6901 40.8535 35.4698 42.4864 36.8577 43.6904C38.2456 44.8944 40.1279 45.5707 42.0907 45.5707C44.0534 45.5707 45.9358 44.8944 47.3237 43.6904C48.7115 42.4864 49.4912 40.8535 49.4912 39.1508V21.4652C49.4912 18.6462 48.8512 15.8547 47.6076 13.2502C46.364 10.6458 44.5413 8.27945 42.2434 6.28592C39.9456 4.29266 37.2176 2.71144 34.2154 1.63256C31.2131 0.553949 27.9953 -0.00134618 24.7456 -0.00134618C21.496 -0.00134618 18.2781 0.553949 15.2758 1.63256C12.2735 2.71144 9.54573 4.29266 7.24799 6.28592C4.94994 8.27945 3.12718 10.6458 1.88381 13.2502C0.64013 15.8547 1.40537e-05 18.6462 1.40537e-05 21.4652V39.1508C0.0021829 40.853 0.782345 42.485 2.16979 43.6887C3.55723 44.8924 5.43855 45.5695 7.40074 45.5714ZM3.23779 21.4665C3.23779 16.5181 5.50393 11.7725 9.53736 8.27354C13.5708 4.77458 19.0414 2.80873 24.7456 2.80873C30.4499 2.80873 35.9205 4.77458 39.954 8.27354C43.9875 11.7725 46.2535 16.5181 46.2535 21.4665V39.1508C46.244 40.1032 45.8013 41.0137 45.0216 41.6843C44.2419 42.3548 43.1885 42.731 42.0907 42.731C40.9928 42.731 39.9394 42.3548 39.1598 41.6843C38.3801 41.0137 37.9374 40.1032 37.9279 39.1508V23.1585C37.9279 20.1256 36.539 17.2169 34.0669 15.0723C31.5948 12.9277 28.2418 11.723 24.7456 11.723C21.2495 11.723 17.8964 12.9277 15.4242 15.0723C12.9524 17.2169 11.5634 20.1256 11.5634 23.1585V39.1508C11.5634 40.1086 11.125 41.0271 10.3442 41.7043C9.56339 42.3815 8.50468 42.762 7.40074 42.762C6.29648 42.762 5.23778 42.3815 4.45699 41.7043C3.67652 41.0271 3.23779 40.1086 3.23779 39.1508V21.4665Z" fill="#BA3E16"/>
</g>
</svg>
